<?xml version="1.0" standalone="no"?>
<!DOCTYPE svg PUBLIC "-//W3C//DTD SVG 20010904//EN"
 "http://www.w3.org/TR/2001/REC-SVG-20010904/DTD/svg10.dtd">
<svg version="1.0" xmlns="http://www.w3.org/2000/svg"
 width="100.000000pt" height="100.000000pt" viewBox="0 0 100.000000 100.000000"
 preserveAspectRatio="xMidYMid meet">
<metadata>
Created by potrace 1.14, written by Peter Selinger 2001-2017
</metadata>
<g transform="translate(0.000000,100.000000) scale(0.100000,-0.100000)"
fill="#000000" stroke="none">
<path d="M394 813 c-38 -31 -74 -62 -80 -68 -6 -5 -33 -28 -60 -50 -113 -93
-124 -106 -124 -142 0 -34 18 -63 39 -63 7 0 11 -38 11 -107 0 -89 3 -114 20
-140 27 -44 68 -63 138 -63 70 0 72 3 72 91 0 53 -3 62 -30 86 -28 25 -30 30
-30 104 0 43 5 81 10 84 6 4 10 -22 10 -69 0 -68 2 -76 19 -76 22 0 30 24 33
100 1 51 2 50 7 -20 5 -68 8 -75 28 -78 21 -3 22 1 26 75 l3 78 2 -91 c2 -85
1 -92 -23 -112 -21 -19 -25 -30 -25 -81 0 -86 3 -91 65 -91 39 0 54 4 59 16 3
9 6 92 6 185 0 111 3 168 10 164 19 -12 48 -91 54 -151 6 -52 4 -64 -14 -87
-16 -20 -20 -38 -18 -74 l3 -48 57 -3 c68 -4 110 15 138 61 17 26 20 51 20
140 0 69 4 107 11 107 21 0 39 29 39 64 0 36 -6 43 -200 206 -163 137 -171
139 -276 53z"/>
</g>
</svg>
